<svg xmlns="http://www.w3.org/2000/svg" id="Layer_1" data-name="Layer 1" viewBox="0 0 456.35 263.77"><defs><style>.cls-1{fill:#fff}</style></defs><title>LogoWhite</title><path d="M177.88,149.82l0,0a5.37,5.37,0,0,0-7-2.81,5.83,5.83,0,0,0-1.7,1.14,6,6,0,0,0-1.13,1.7,5.62,5.62,0,0,0-.41,2.08,5.29,5.29,0,0,0,5.35,5.33,5.34,5.34,0,0,0,5.35-5.33A5.62,5.62,0,0,0,177.88,149.82Zm-5.59,2.71a.79.79,0,0,1-.25-.63.92.92,0,0,1,.26-.68.83.83,0,0,1,.64-.28,1,1,0,0,1,1,1,.78.78,0,0,1-.28.62A.93.93,0,0,1,172.29,152.53Z" class="cls-1"/><path d="M316.12,174.66h0a2.67,2.67,0,0,0-3.42-.47,2.7,2.7,0,0,0-1,1.21c-.38.86-.93,2-1.65,3.32a29.9,29.9,0,0,1-2.6,4,18.21,18.21,0,0,1-3.19,3.35,5,5,0,0,1-3.2,1.31,2.08,2.08,0,0,1-1.22-.33,2.27,2.27,0,0,1-.74-1,5.8,5.8,0,0,1-.41-1.71,16.54,16.54,0,0,1-.13-2.21c0-.61,0-1.26.07-2l.21-3c0-.39.06-.76.09-1.12.06-.64.08-1.2.08-1.65a9.21,9.21,0,0,0-1.38-5.14,5.06,5.06,0,0,0-4.51-2.25,6.76,6.76,0,0,0-3.14.87,10.92,10.92,0,0,0-3.18,2.73c-.92,1.14-1.84,2.4-2.82,3.86s-1.74,2.7-2.55,4.05-1.55,2.72-2.26,4l.09-1c.08-.94.16-1.89.26-2.84.13-1.46.24-2.83.31-4.09s.14-2.24.14-2.85a13,13,0,0,0-.24-2.51,8.79,8.79,0,0,0-.78-2.3,5.06,5.06,0,0,0-1.52-1.83,4.19,4.19,0,0,0-2.4-.71c-1.56,0-3.09.95-4.55,2.83a37.51,37.51,0,0,0-4.37,8.12l0,.11c-.64,1.43-1.36,2.88-2.19,4.41a24.32,24.32,0,0,1-2.87,4.1,14.43,14.43,0,0,1-3.44,2.92,8.57,8.57,0,0,1-7.72.29A7.32,7.32,0,0,1,248,185.9a24.59,24.59,0,0,0,2.9-1.87,17,17,0,0,0,3-3,13.42,13.42,0,0,0,2.06-3.55,11.37,11.37,0,0,0,.74-4.14,8,8,0,0,0-.61-3.17,7.28,7.28,0,0,0-10.44-3.42,9.56,9.56,0,0,0-3,2.72,12.1,12.1,0,0,0-1.94,4.05c-.09.31-.18.63-.25.95a2.73,2.73,0,0,0-.64,1,32.44,32.44,0,0,1-1.58,3.24,37.68,37.68,0,0,1-2.54,4,20.57,20.57,0,0,1-3.08,3.36c-1.88,1.61-3.75,1.61-5.34.55a8.75,8.75,0,0,1-2.22-2.14,16.51,16.51,0,0,1-1.94-3.28,31,31,0,0,1-1.39-3.8,21.1,21.1,0,0,0,1.65-2.84c.71-1.48,1.4-3.1,2-4.83s1.37-3.87,2-6.06,1.22-4.36,1.76-6.72.94-4.65,1.24-7a51.49,51.49,0,0,0,.45-6.35h24.56a2.78,2.78,0,0,0,1.87-.66,2.56,2.56,0,0,0,0-3.77,2.82,2.82,0,0,0-1.87-.65H230.58a22.63,22.63,0,0,0-.51-2.71,9.84,9.84,0,0,0-1.11-2.79,5.71,5.71,0,0,0-1.8-2,5.15,5.15,0,0,0-5.39,0,7.3,7.3,0,0,0-2.18,1.92,13.35,13.35,0,0,0-1.65,2.76,23.61,23.61,0,0,0-1,2.84H198.69a2.82,2.82,0,0,0-1.87.65,2.56,2.56,0,0,0,0,3.77,2.78,2.78,0,0,0,1.87.66h17c-.24,1.34-.45,2.74-.63,4.24-.2,1.76-.35,3.49-.45,5.14s-.17,3.24-.2,4.74-.06,2.78-.06,3.88a69.11,69.11,0,0,0,1,12.29c.17.93.36,1.84.56,2.7-.59,1.24-1.25,2.48-2,3.69a25.34,25.34,0,0,1-3.32,4.46,15.69,15.69,0,0,1-4.11,3.22,10.05,10.05,0,0,1-3.74,1.15,7.15,7.15,0,0,0,1.37-2.08,10.23,10.23,0,0,0,.93-4.32,10.35,10.35,0,0,0-.62-3.47,38.1,38.1,0,0,0-1.51-3.53l-.31-.61c-.53-1-1.11-2.19-1.76-3.41-.73-1.41-1.46-3-2.16-4.77.14-.7.26-1.28.34-1.78a9.85,9.85,0,0,0,.16-1.73,5.16,5.16,0,0,0-.8-2.9,2.89,2.89,0,0,0-2.48-1.35,3,3,0,0,0-2.6,1.38,5.38,5.38,0,0,0-.85,3.11,10,10,0,0,0,.17,1.82c.1.51.26,1.12.46,1.82a30.56,30.56,0,0,1-1,3.64,26.69,26.69,0,0,1-1.58,3.68,2.41,2.41,0,0,0-.4.59c-1,1.94-2,3.81-3.1,5.56A34.58,34.58,0,0,1,184,185a14.62,14.62,0,0,1-2.9,2.67,4.19,4.19,0,0,1-4,.61,3.39,3.39,0,0,1-1.41-1,6.09,6.09,0,0,1-1.18-2.25,13.4,13.4,0,0,1-.5-4c0-1.29.06-2.69.13-4.23s.19-3,.3-4.36.22-2.6.29-3.57.14-1.67.14-1.88a2.72,2.72,0,0,0-.69-1.83,2.66,2.66,0,0,0-3.79-.11,3,3,0,0,0-.85,1.69c-.35,2.71-.59,5.47-.72,8.21a1.4,1.4,0,0,0-.16.29c-.43.91-1,2.08-1.81,3.54a36.81,36.81,0,0,1-2.65,4.29,21.08,21.08,0,0,1-3.27,3.58,5.26,5.26,0,0,1-3.35,1.4c-1.67,0-3.1-1.06-4.37-3.23a32.21,32.21,0,0,1-3.2-9.47c1.9-3.47,3.63-6.92,5.13-10.27a111.44,111.44,0,0,0,4.29-10.84,87.38,87.38,0,0,0,2.87-10.82A54.22,54.22,0,0,0,163.34,133a40.86,40.86,0,0,0-.52-7,17.08,17.08,0,0,0-1.47-4.76,7,7,0,0,0-2.53-2.85,6.64,6.64,0,0,0-3.38-.89,5.9,5.9,0,0,0-4.32,2,16.47,16.47,0,0,0-3.08,4.83,40.3,40.3,0,0,0-2.24,6.88,79.88,79.88,0,0,0-1.54,8.22c-.42,2.94-.71,5.93-.88,8.88s-.28,5.94-.28,8.73c0,1.94.06,4.19.17,6.69.11,2.31.33,4.85.68,7.78a72,72,0,0,0,1.44,7.9,33,33,0,0,0,2.5,7,16.3,16.3,0,0,0,3.84,5.1,8.44,8.44,0,0,0,5.66,2,9.31,9.31,0,0,0,4-.89,15.59,15.59,0,0,0,3.43-2.27,21.48,21.48,0,0,0,2.93-3.11c.44-.57.87-1.15,1.28-1.74.05.22.1.44.16.66a12.12,12.12,0,0,0,1.88,4,9.77,9.77,0,0,0,3.13,2.77,8.7,8.7,0,0,0,4.33,1,8.3,8.3,0,0,0,3.8-.93,15.36,15.36,0,0,0,3.42-2.33,27.39,27.39,0,0,0,3-3.21l.12-.16c0,.08,0,.17,0,.25a2.42,2.42,0,0,0,.43,1.38,10.83,10.83,0,0,0,5,4.16,17.17,17.17,0,0,0,6.53,1.25,15.87,15.87,0,0,0,5.41-.88,17.84,17.84,0,0,0,4.5-2.29,21.58,21.58,0,0,0,3.73-3.24,31.31,31.31,0,0,0,2.89-3.68c.24-.34.46-.69.68-1l.24.52a18.93,18.93,0,0,0,4.9,6.58,10.33,10.33,0,0,0,6.69,2.42,8.24,8.24,0,0,0,4.1-1.1,17,17,0,0,0,3.42-2.63,21,21,0,0,0,2.87-3.46c.25-.38.5-.75.73-1.12a14.79,14.79,0,0,0,2.2,4.12,12.39,12.39,0,0,0,10.3,4.88,14.37,14.37,0,0,0,9.75-4.16c2.74-2.59,5.31-6.47,7.62-11.51a.93.93,0,0,0,.15-.27,37.08,37.08,0,0,1,2.87-5.93c.22-.33.41-.6.56-.81.05.73.09,1.49.09,2.29,0,.62,0,1.39-.09,2.28l0,.25c-.07.87-.14,1.79-.24,2.78l0,.22c-.09,1-.17,2-.28,3.05-.06.73-.13,1.43-.2,2.1l-.19,1.95c-.06.55-.11,1-.15,1.46-.08.73-.11,1.22-.11,1.46a4.11,4.11,0,0,0,1.1,3,3.92,3.92,0,0,0,2.89,1.12,4.35,4.35,0,0,0,2.53-.89,8.29,8.29,0,0,0,2.24-3.12c.33-.74.79-1.65,1.36-2.75s1.2-2.28,1.88-3.49c.81-1.44,1.5-2.62,2.19-3.71s1.51-2.3,2.25-3.31a16.63,16.63,0,0,1,2.06-2.31,2.44,2.44,0,0,1,1.24-.73,1.27,1.27,0,0,1,.36.32c.07.08.3.43.3,1.65,0,.61,0,1.26-.08,1.95s-.11,1.37-.2,2.06l0,.23c-.07.64-.13,1.24-.17,1.79s-.07,1.24-.07,1.76a23.8,23.8,0,0,0,.27,3.6,10.38,10.38,0,0,0,1.17,3.41,6.86,6.86,0,0,0,2.48,2.59,7.61,7.61,0,0,0,4.06,1,8.63,8.63,0,0,0,4.22-1.1,16.7,16.7,0,0,0,3.54-2.61,22.94,22.94,0,0,0,3-3.44c.8-1.1,1.55-2.24,2.31-3.5s1.19-2.08,1.61-2.94l.82-1.7a2.55,2.55,0,0,0,.21-1A2.86,2.86,0,0,0,316.12,174.66ZM148.63,163.32c-.1-2.08-.15-4.14-.15-6.12,0-2.77.09-5.6.28-8.41s.43-5.6.74-8.1.7-5,1.16-7.23a47.39,47.39,0,0,1,1.53-5.82,16,16,0,0,1,1.73-3.75c.34-.5.85-1.1,1.37-1.1.7,0,1.31.68,1.81,2,.6,1.6.9,4.35.9,8.17a47.75,47.75,0,0,1-.86,8.69,83.16,83.16,0,0,1-2.3,9.21c-1,3.05-2,6.06-3.33,9.19-.84,2-1.75,4.06-2.71,6C148.74,165.2,148.68,164.26,148.63,163.32Zm50.86,20.89a4.22,4.22,0,0,1-.61,1.31,3.39,3.39,0,0,1-1.09,1,2.89,2.89,0,0,1-2.53.22,3.26,3.26,0,0,1-.81-.37c-.27-.18-.5-.34-.7-.49l-.14-.09-.11-.14a2.7,2.7,0,0,0-2.92-.59l.76-1.13c.69-1,1.36-2.14,2.1-3.46.6-1.11,1.1-2,1.45-2.73.16-.24.34-.53.52-.85.36-.74.7-1.47,1-2.14l0-.08c.19.37.38.74.6,1.14.47.86.92,1.71,1.34,2.53a17.41,17.41,0,0,1,1,2.39,7.51,7.51,0,0,1,.36,2.26A4.94,4.94,0,0,1,199.49,184.21Zm24.15-47.88a9,9,0,0,1,.66-.68,2,2,0,0,1,.38.68,10.64,10.64,0,0,1,.55,2.23h-2.77A7.56,7.56,0,0,1,223.64,136.33Zm-3.59,33.06c-.07-.55-.12-1.12-.17-1.69h0c-.14-1.51-.2-3.43-.2-6.05,0-4.51.14-8.12.42-11a64.58,64.58,0,0,1,1-7h4.48c0,1.81-.2,3.82-.47,6a74.31,74.31,0,0,1-1.35,7.56c-.56,2.53-1.26,5.1-2.08,7.67Q220.87,167.31,220.05,169.39Zm31.29,4a6.67,6.67,0,0,1-.45,2.4,8.84,8.84,0,0,1-1.28,2.32,11.34,11.34,0,0,1-3.84,3.22c-.07-.31-.13-.61-.18-.91a10.29,10.29,0,0,1-.16-1.77,15.48,15.48,0,0,1,.25-2.79,9.73,9.73,0,0,1,.8-2.46,5,5,0,0,1,1.35-1.68,2.76,2.76,0,0,1,1.79-.59,1.6,1.6,0,0,1,1.19.53A2.44,2.44,0,0,1,251.34,173.34Z" class="cls-1"/><path d="M415.49,147.73a1.56,1.56,0,0,1-.16-2.17,19.19,19.19,0,0,0,3.52-15.47c-1.85-8.55-9.06-12.2-10.48-12.87a1.58,1.58,0,0,1-.84-1,1.52,1.52,0,0,1,.17-1.26,16.58,16.58,0,0,0,2.14-11.61A17.12,17.12,0,0,0,404,93.54,28.72,28.72,0,0,1,392.65,100a27.06,27.06,0,0,1-8,1.17,30.81,30.81,0,0,1-10.31-1.84,1.59,1.59,0,0,1-.93-2,1.54,1.54,0,0,1,2-.93,26,26,0,0,0,16.39.59,24.69,24.69,0,0,0,10.56-6.29,23.72,23.72,0,0,0-1.88-12.91,24.19,24.19,0,0,0-9.6-10.6,17.63,17.63,0,0,1-7.17,8.22,16.82,16.82,0,0,1-8.38,2.18,18.88,18.88,0,0,1-9.85-2.81,1.58,1.58,0,0,1,1.64-2.69,14.7,14.7,0,0,0,15,.55,13.88,13.88,0,0,0,6.25-7.84A20.66,20.66,0,0,0,385,56.2c-6.7-9.77-19.82-9.68-21.33-9.6a1.51,1.51,0,0,1-1.47-1A18.88,18.88,0,0,0,351.12,35a15.35,15.35,0,0,0-5.07-.89,12,12,0,0,0-5.75,1.43c-4.65,2.6-7.37,9.05-6.53,15.72V68.56a24.93,24.93,0,0,1,25-9,1.56,1.56,0,0,1-.63,3.06,22.6,22.6,0,0,0-12,.76,23,23,0,0,0-12.4,10.81V90.51c-.88-.21-1.55.15-2.52.07a.92.92,0,0,1-.56-.48c-.24-.5-.38-1.07-.59-1.61A1.9,1.9,0,0,0,327.91,87a2.4,2.4,0,0,0-1.63,2.18,24.6,24.6,0,0,1-.52,2.75c0-.14-.09-.29-.13-.43l-1.38-8.17c-.28-1.58-1-2.45-2.12-2.42s-1.79,1-1.94,2.55c-.33,3.39-.63,6.79-.94,10.19-.15,1.71-.3,3.42-.45,5.11a.34.34,0,0,1-.2.27c-.06-.49-.15-1-.2-1.46-.82-7.35-1.63-14.68-2.46-22-.11-1-.2-2-.33-3.08-.19-1.41-1-2.31-2.07-2.27a2.34,2.34,0,0,0-2,2.38c-.43,5-.85,10-1.3,15-.4,4.69-.83,9.39-1.23,14.08-.17,1.82-.3,3.66-.47,5.47a6.46,6.46,0,0,1-.11.75h-.13c-.09-.77-.2-1.55-.29-2.32L305.6,84.78c-.18-1.54-1-2.49-2-2.49s-1.81.94-2,2.47c-.66,4.32-1.35,8.62-2,12.93a.85.85,0,0,1-.24.52c-.13-.87-.28-1.72-.41-2.57-.88-6.14-1.79-12.26-2.68-18.37-.22-1.54-1-2.45-2.12-2.42s-1.77,1-1.94,2.51c-.77,7.15-1.57,14.31-2.34,21.47-.21,1.9-.41,3.81-.63,5.72,0,.1-.06.21-.13.52a5.35,5.35,0,0,1-.18-.75c-.65-5.08-1.3-10.17-1.94-15.24-.17-1.4-.89-2.31-1.9-2.44-.82-.11-1.59.52-2,1.61-.06.22-.14.54-.26.93-.54,1.85-2.55,8.62-8.61,13-1.89,1.37-6.3,4.58-12.35,3.91-7.17-.8-11.1-6.36-11.71-7.25A26.18,26.18,0,0,0,254.74,96a20.12,20.12,0,0,0,3.73-3.63,16.13,16.13,0,0,0,2.44-4.26,13,13,0,0,0,.91-4.9,9,9,0,0,0-.71-3.62,8.45,8.45,0,0,0-4.41-4.42,7.52,7.52,0,0,0-2.91-.61,9,9,0,0,0-4.53,1.16,11.1,11.1,0,0,0-3.58,3.16,15.64,15.64,0,0,0-2.29,4.77,11,11,0,0,0-.39,1.81,2,2,0,0,0-.57.82c-.05.08-.18.32-.37.68a5.06,5.06,0,0,1-.87,1.22,5.21,5.21,0,0,1-1.4,1.1,4.28,4.28,0,0,1-2.09.49,7.1,7.1,0,0,1-3.84-1.06,11.71,11.71,0,0,1-3-2.64,17.5,17.5,0,0,1-2.23-3.46,26.81,26.81,0,0,1-1.48-3.56,28.4,28.4,0,0,1-.89-2.89c-.22-.81-.35-1.3-.4-1.47a2.52,2.52,0,0,0-.82-1.44,2.32,2.32,0,0,0-1.53-.54,2.37,2.37,0,0,0-1.72.73,2.42,2.42,0,0,0-.7,1.69,30,30,0,0,0,.44,3.56,41.36,41.36,0,0,1,.46,6.69,47.85,47.85,0,0,1-.41,6.38,20.74,20.74,0,0,1-1.38,5.32,9.29,9.29,0,0,1-2.54,3.63,5.83,5.83,0,0,1-3.87,1.33,6.6,6.6,0,0,1-3.13-.73,6.14,6.14,0,0,1-2.36-2.29,11.13,11.13,0,0,1-1.36-4,26.3,26.3,0,0,1-.22-5.79l.7-10.48a2.86,2.86,0,0,0-.64-1.82,2,2,0,0,0-1.72-.79,2.51,2.51,0,0,0-1.68.63,2.26,2.26,0,0,0-.8,1.58l-.82,10.94a17.71,17.71,0,0,1-1.27,5.54,13.82,13.82,0,0,1-2.42,3.89,9.57,9.57,0,0,1-3,2.26,7.06,7.06,0,0,1-2.94.72,5.08,5.08,0,0,1-4.25-1.94,9.08,9.08,0,0,1-1.52-5.69,28.26,28.26,0,0,1,.6-6.29,28.75,28.75,0,0,1,1.36-4.52,19,19,0,0,1,1.51-2.93l1-1.47a2.89,2.89,0,0,0,.52-1.52,2.44,2.44,0,0,0-.68-1.67A2.2,2.2,0,0,0,189,75a2.72,2.72,0,0,0-1,.19,1.8,1.8,0,0,0-.79.59,21.43,21.43,0,0,0-2.83,4.44,31,31,0,0,0-1.92,5.69,25.68,25.68,0,0,0-.58,3.32h0a12.84,12.84,0,0,1-.93,1.38A11.61,11.61,0,0,1,176.42,94a12.94,12.94,0,0,1-4.67,1.18c-1.56.09-4.19.24-5.85-1.42a6.23,6.23,0,0,1-1.13-1.73,19.07,19.07,0,0,1-1.18-3.67s0,0,0,0c-.32-1.16-1-1.87-1.72-1.74-.87.13-1.49,1-1.64,2.44-.54,5.07-1.1,10.16-1.65,15.24,0,.19-.08.38-.17.75-.06-.31-.09-.42-.1-.52q-.28-2.86-.55-5.72-1-10.74-2-21.47c-.14-1.5-.78-2.47-1.65-2.51s-1.62.88-1.81,2.42q-1.16,9.17-2.3,18.37c-.11.85-.23,1.7-.34,2.57a.86.86,0,0,1-.21-.52c-.58-4.31-1.15-8.61-1.72-12.93-.21-1.53-.87-2.48-1.75-2.47s-1.58.95-1.73,2.49q-1,10.38-2.09,20.77c-.08.77-.17,1.55-.25,2.32h-.12c0-.26-.07-.49-.09-.75-.14-1.81-.25-3.65-.39-5.47-.35-4.69-.72-9.39-1.07-14.08q-.56-7.47-1.11-15c-.1-1.36-.81-2.35-1.68-2.38s-1.62.86-1.77,2.27c-.11,1-.2,2.06-.29,3.08-.71,7.36-1.4,14.69-2.1,22-.05.49-.12,1-.18,1.46a.36.36,0,0,1-.17-.27c-.13-1.69-.25-3.4-.38-5.11-.27-3.4-.51-6.8-.8-10.19-.13-1.59-.78-2.52-1.67-2.55s-1.58.84-1.81,2.42c-.4,2.72-.78,5.45-1.18,8.17,0,.14-.08.29-.11.43a26.68,26.68,0,0,1-.45-2.75c-.16-1.19-.71-2-1.39-2.18s-1.5.31-1.88,1.45c-.18.54-.31,1.11-.51,1.61-.09.22-.31.46-.47.48-.77,0-1.53,0-2.29,0V54.37a21,21,0,0,0-6.78-16.31c-3.18-2.84-7-4.28-10.42-3.82-5.51.72-10.56,6.57-12.12,13.94v.09a24.31,24.31,0,0,0,.55,11c.8,2.54,2.41,6.14,3.09,7.67.47,1,.64,1.35.38,2a1.78,1.78,0,0,1-1.27.89,1.66,1.66,0,0,1-1.69-.93,4.06,4.06,0,0,1-.3-.64,71.21,71.21,0,0,1-3.22-8,26.05,26.05,0,0,1-.93-10.55A20.22,20.22,0,0,0,74.3,55a20.91,20.91,0,0,0-6.53,14s0,0,0,.09c.26,4.49,1.91,15.93,11.28,24.24a33.6,33.6,0,0,0,12.29,6.82,1.6,1.6,0,0,1,1.06,2,1.5,1.5,0,0,1-1.49,1.1,1.61,1.61,0,0,1-.46,0A35.41,35.41,0,0,1,77,95.73c-9.15-8.09-11.57-18.81-12.2-24.54a18.75,18.75,0,0,0-9.33,5.6c-3.3,3.81-4.24,8.52-4.74,11.06a19.68,19.68,0,0,0-.47,4.66,10.67,10.67,0,0,1-.85,4.79,12.27,12.27,0,0,1-3.6,4.87,29.35,29.35,0,0,0-4,4.37c-1.94,2.54-4.61,6-5.34,10.59a10.73,10.73,0,0,0,.3,4.79,34.12,34.12,0,0,1,.76,4.15c.05.43.09.81.13,1.19l14.28,10.17a1.6,1.6,0,0,1,.34,2.21,1.44,1.44,0,0,1-1.27.67,1.51,1.51,0,0,1-.93-.29L37.64,131.2a29.79,29.79,0,0,1-1.19,6.4,32.11,32.11,0,0,0-1.39,10.68A26.43,26.43,0,0,0,37.94,161a23.35,23.35,0,0,0,5.13,6.48,43.68,43.68,0,0,1,8.34-12.84,42.38,42.38,0,0,1,14-9.79.5.5,0,0,1,.21-.12.47.47,0,0,1,.21,0s0,0,0,0a21.93,21.93,0,0,0,12.12-9.37,21.28,21.28,0,0,0,2.93-13,24.14,24.14,0,0,1-3.61-.51,29.62,29.62,0,0,1-18.09-12.5,1.56,1.56,0,0,1,.42-2.2,1.58,1.58,0,0,1,2.21.42,26.11,26.11,0,0,0,16.14,11.15,21.81,21.81,0,0,0,4.41.55,25.34,25.34,0,0,0,11.82-2.37,1.59,1.59,0,0,1,2.08.8,1.53,1.53,0,0,1-.76,2.08,29.49,29.49,0,0,1-11.44,2.67,24.08,24.08,0,0,1-14.46,24.2A15,15,0,0,1,74.51,155,15.32,15.32,0,0,1,72,166.54a1.58,1.58,0,0,1-1.31.64,1.56,1.56,0,0,1-1.28-2.5,11.63,11.63,0,0,0-3.3-16.74,39.63,39.63,0,0,0-20.85,22.5c-2.33,11,1.95,21.7,10,24.92,4.7,1.95,9.53.81,12.75-.51a1.67,1.67,0,0,1,1.74.38,1.71,1.71,0,0,1,.34,1.74c-3,7.16-1,15.22,4.7,18.69,4.28,2.67,9.37,1.4,11.4.68a38.69,38.69,0,0,1,1.44-7.59,39.86,39.86,0,0,1,3.82-8.85,1.58,1.58,0,0,1,2.2-.55,1.56,1.56,0,0,1,.55,2.16,35.31,35.31,0,0,0-3.51,8.13,35.7,35.7,0,0,0-1.36,7.63,18.86,18.86,0,0,0,4,6.23c2,2,7.16,6.65,14.36,6.06,4.41-.38,7.88-2.08,10-5a12.12,12.12,0,0,0,2.24-7V169.6a78.32,78.32,0,0,0-9.92-2.17l-5.29-.72a19.28,19.28,0,0,1,7,13.35c.64,8-4.11,13.69-5.59,15.26a1.52,1.52,0,0,1-1.15.51,1.61,1.61,0,0,1-1.1-.47,1.55,1.55,0,0,1,0-2.24c1.23-1.32,5.25-6.11,4.7-12.8a16.82,16.82,0,0,0-10.42-14.07,26.76,26.76,0,0,0-6.61.89c-7.12,2-12,6.91-14.92,10.68a1.64,1.64,0,0,1-1.27.63,1.43,1.43,0,0,1-1-.34,1.55,1.55,0,0,1-.29-2.2c3.17-4.15,8.64-9.58,16.61-11.82,6.4-1.83,12.33-.94,19.83.21a79.71,79.71,0,0,1,9.45,2V98.91a21.18,21.18,0,0,1-4.58,1.14,21.9,21.9,0,0,1-2.92.17,19.6,19.6,0,0,1-3.52-.29,43.13,43.13,0,0,1,1.7,7.58c2.75,21.57-11.78,36.62-14.75,39.37a1.54,1.54,0,0,1-2.25,0,1.6,1.6,0,0,1,0-2.25c1.69-1.61,16.44-16.19,13.77-36.65A39.78,39.78,0,0,0,105,98.32s0-.09,0-.13A44,44,0,0,0,95.53,84a1.59,1.59,0,1,1,2.29-2.2,46.64,46.64,0,0,1,9.79,14.66,18.36,18.36,0,0,0,7.41.47,17.6,17.6,0,0,0,5-1.4V93.23c.8,0,1.59,0,2.4,0s1.48-.57,1.83-1.83c.18-.61.37-1.19.55-1.79h.12c.1.81.2,1.63.29,2.44.19,1.58.84,2.53,1.75,2.56s1.55-.9,1.77-2.45c.29-2,.56-3.94.85-5.91.13-.9.27-1.79.4-2.69a.32.32,0,0,1,.13,0c.06.71.13,1.43.19,2.16.34,4.51.68,9,1,13.5.11,1.46.8,2.45,1.67,2.52s1.61-.89,1.79-2.36c.08-.6.12-1.23.18-1.85q1.09-11.47,2.19-23c0-.58.13-1.15.22-1.93.09.27.12.32.13.38.16,2.12.31,4.22.47,6.32.26,3.44.51,6.87.77,10.3l.78,10.48c.2,2.64.37,5.28.6,7.9.14,1.55.83,2.45,1.74,2.45s1.58-1,1.75-2.45c.1-1,.18-1.91.27-2.86q.9-8.9,1.78-17.8c.08-.81.18-1.61.27-2.42a1.53,1.53,0,0,1,.23.67c.46,3.5.93,7,1.4,10.54.09.71.19,1.41.28,2.12.2,1.63.87,2.62,1.77,2.61s1.55-1,1.75-2.58q1.13-8.94,2.22-17.88c.13-1,.26-2,.4-3a.66.66,0,0,1,.17.41l.93,9.86c.53,5.73,1.08,11.45,1.61,17.17.14,1.55.78,2.58,1.69,2.66s1.62-.87,1.78-2.37c.5-4.37,1-8.75,1.45-13.11.11-.93.22-1.86.32-2.78a.3.3,0,0,1,.13,0c.11.47.22,1,.32,1.42h0s0,.05,0,.07A7.79,7.79,0,0,0,165,95.57a6.39,6.39,0,0,0,1.88.9,14.09,14.09,0,0,0,5.6.77,13.15,13.15,0,0,0,4.45-.92A12.52,12.52,0,0,0,181.62,93c0,.36,0,.72,0,1.09a16.16,16.16,0,0,0,.76,5.15,12,12,0,0,0,2.13,3.92,10,10,0,0,0,3.31,2.52,10.52,10.52,0,0,0,4.34.88,10.88,10.88,0,0,0,6-2,17.41,17.41,0,0,0,5.25-5.7,16.06,16.06,0,0,0,1.4,3,10.13,10.13,0,0,0,2.06,2.55,9.37,9.37,0,0,0,2.94,1.77,10.13,10.13,0,0,0,3.89.68,10.25,10.25,0,0,0,6-1.69,13.24,13.24,0,0,0,3.92-4.35,22.16,22.16,0,0,0,2.2-6,45,45,0,0,0,.88-6.64,20.75,20.75,0,0,0,2.09,2.41,16,16,0,0,0,2.51,2,12.66,12.66,0,0,0,3,1.43,10.63,10.63,0,0,0,3.43.53,8.67,8.67,0,0,0,3.86-.85,8.94,8.94,0,0,0,1.31-.76,24.94,24.94,0,0,0,.68,3.15,22,22,0,0,0,2.92,5.82c4.11,5.52,11.75,6.83,12.28,6.91a21.26,21.26,0,0,0,14.53-3.11,24.32,24.32,0,0,0,6-5.54,29.49,29.49,0,0,0,4.66-8c.19-.44.35-.89.35-.89.18-.66.37-1.34.53-2a.34.34,0,0,1,.15,0c.13.92.24,1.85.37,2.78.57,4.36,1.11,8.74,1.7,13.11.18,1.5,1.07,2.43,2.07,2.37s1.82-1.11,2-2.66c.61-5.72,1.26-11.44,1.88-17.17.35-3.28.72-6.57,1.07-9.86a.63.63,0,0,1,.21-.41c.16,1,.31,2,.46,3q1.31,8.94,2.58,17.88c.24,1.6,1,2.55,2,2.58s1.85-1,2.07-2.61l.33-2.12c.56-3.51,1.09-7,1.63-10.54a1.51,1.51,0,0,1,.27-.67c.12.81.23,1.61.32,2.42Q305,96.29,306,105.2l.33,2.86c.2,1.5,1,2.45,2,2.45s1.88-.9,2.05-2.45c.26-2.62.46-5.26.68-7.9q.48-5.25.93-10.48t.9-10.3c.18-2.1.35-4.2.54-6.32,0-.06.05-.11.14-.38.11.78.21,1.35.26,1.93q1.31,11.51,2.57,23c.07.62.11,1.25.2,1.85.22,1.47,1.07,2.44,2.11,2.36s1.81-1.06,1.93-2.52c.41-4.5.82-9,1.2-13.5.08-.73.15-1.45.23-2.16a.39.39,0,0,1,.14,0c.17.9.34,1.79.48,2.69.34,2,.65,4,1,5.91.26,1.55,1,2.47,2.07,2.45s1.81-1,2-2.56c.11-.81.24-1.63.35-2.44h.15c.2.6.42,1.18.63,1.79.4,1.26,1.12,1.85,2.14,1.83s1.77,0,2.65,0v2.41A18.15,18.15,0,0,1,344.92,93c7.5.8,12.15,6.71,16.68,12.41,4.1,5.24,8,10.14,13.66,10.6,3.9.34,8.34-1.72,13-6.12a1.59,1.59,0,0,1,2.22.08,1.55,1.55,0,0,1-.08,2.23c-3.65,3.47-7.25,5.65-10.77,6.53a10.68,10.68,0,0,1,1.21,3.27,9.52,9.52,0,0,1,.09,3.61,1.58,1.58,0,0,1-1.55,1.34h-.21a1.6,1.6,0,0,1-1.34-1.8,7.59,7.59,0,0,0-.05-2.56,7.14,7.14,0,0,0-1.71-3.39,7,7,0,0,1-1.05,0c-7-.54-11.53-6.28-15.89-11.77s-8.38-10.61-14.54-11.28c-3.44-.33-7.08.71-10.81,3.19v16.22a33.11,33.11,0,0,0,12.74,16.09,32.09,32.09,0,0,0,15.88,4.9,43.44,43.44,0,0,0,26.07-7.71,1.62,1.62,0,0,1,2.18.46,1.58,1.58,0,0,1-.46,2.18,46.9,46.9,0,0,1-25,8.22,16.31,16.31,0,0,1,1.05,12.82c-2.47,7-8.89,9.52-10.14,10a2.26,2.26,0,0,1-.51.08,1.58,1.58,0,0,1-1.51-1.09,1.61,1.61,0,0,1,1-2,13.33,13.33,0,0,0,8.17-8c1.93-5.45-.67-10.19-1.67-11.82a35.07,35.07,0,0,1-16.81-5.37,34.47,34.47,0,0,1-11-11.57v63.08a28.82,28.82,0,0,1,22.5-11.19c10.56.08,17.65,6.33,20.2,9a1.58,1.58,0,0,1,0,2.22,1.61,1.61,0,0,1-2.22,0c-2.3-2.39-8.63-8-18-8h-.17c-9.05,0-17.56,5.2-22.29,13.71v26.11c1.17,7.33,8.09,12.91,15.21,11.94,5.74-.79,10.39-5.65,11.32-11.94a2,2,0,0,0,0-.21v-.08a22.06,22.06,0,0,0-1.09-12.12,21.76,21.76,0,0,0-7.08-9.38,1.57,1.57,0,0,1-.3-2.23,1.59,1.59,0,0,1,2.18-.29A24.87,24.87,0,0,1,362.18,204a24.53,24.53,0,0,1,1.43,12.79v0a14.31,14.31,0,0,0,15.17.67c6-3.65,6.5-10.73,6.54-11a1.5,1.5,0,0,1,1.42-1.46,21.11,21.11,0,0,0,9.39-3.1c10.4-6.58,10.23-20.92,10.14-23.05a21.1,21.1,0,0,0-9.43-12.16,18.53,18.53,0,0,0-18.86,7,1.55,1.55,0,0,1-2.22.29,1.63,1.63,0,0,1-.29-2.22,22.47,22.47,0,0,1,11.69-7.88,21.18,21.18,0,0,1,9.73-.33c4.1-4.15,5.44-9.85,3.22-14.21a11.11,11.11,0,0,0-6.33-5.16,1.61,1.61,0,0,1-1-2,1.59,1.59,0,0,1,2-1,14,14,0,0,1,8.13,6.7c2.73,5.29,1.43,12-3,17.06a24,24,0,0,1,9,11.78,16.84,16.84,0,0,0,6.62-29.05ZM247.66,92.35a15.14,15.14,0,0,1-.22-2.44,19.72,19.72,0,0,1,.35-3.71,12.46,12.46,0,0,1,1.12-3.4,7,7,0,0,1,2-2.48,4.64,4.64,0,0,1,2.92-1,3,3,0,0,1,2.23,1,3.93,3.93,0,0,1,1,2.89,9.33,9.33,0,0,1-.65,3.4,13.06,13.06,0,0,1-1.79,3.23,14.85,14.85,0,0,1-2.76,2.79,15.41,15.41,0,0,1-3.59,2.09A23.5,23.5,0,0,1,247.66,92.35Z" class="cls-1"/></svg>