<?xml version="1.0" encoding="utf-8"?>
<!-- Generator: Adobe Illustrator 22.1.0, SVG Export Plug-In . SVG Version: 6.00 Build 0)  -->
<svg version="1.1" id="Layer_1" xmlns="http://www.w3.org/2000/svg" xmlns:xlink="http://www.w3.org/1999/xlink" x="0px" y="0px"
	 viewBox="0 0 500 500" style="enable-background:new 0 0 500 500;" xml:space="preserve">
<style type="text/css">
	.st0{fill:#21409A;}
	.st1{opacity:0.9;fill:#FFFFFF;enable-background:new    ;}
	.st2{fill:#F5F5F5;}
	.st3{fill:#E6E6E6;}
	.st4{fill:#263238;}
	.st5{opacity:0.2;enable-background:new    ;}
	.st6{opacity:0.7;fill:#21409A;enable-background:new    ;}
	.st7{fill:#FFFFFF;}
	.st8{opacity:0.1;enable-background:new    ;}
	.st9{fill:#FF8B7B;}
	.st10{fill:#EA7063;}
	.st11{opacity:0.3;enable-background:new    ;}
	.st12{opacity:0.4;enable-background:new    ;}
	.st13{fill:#FF5652;}
	.st14{opacity:0.6;fill:#21409A;enable-background:new    ;}
</style>
<g>
	<g id="freepik--background-simple--inject-94">
		<g id="freepik--group--inject-94">
			<path id="freepik--path--inject-94" class="st0" d="M99.6,130.9c-11.5,103,8.9,209,129.1,223.9c62,7.7,189.6-19.9,192.9-99.2
				c4.7-109.4-117.4-69.3-168.7-106c-35.1-25.1-8-93-72.7-104.3C129,36.2,104.4,88.1,99.6,130.9z"/>
			<path id="freepik--path--inject-94_1_" class="st1" d="M99.6,130.9c-11.5,103,8.9,209,129.1,223.9c62,7.7,189.6-19.9,192.9-99.2
				c4.7-109.4-117.4-69.3-168.7-106c-35.1-25.1-8-93-72.7-104.3C129,36.2,104.4,88.1,99.6,130.9z"/>
		</g>
	</g>
	<g id="freepik--Shadow--inject-94">
		<ellipse id="freepik--path--inject-94_2_" class="st2" cx="250" cy="441.8" rx="239" ry="14"/>
	</g>
	<g id="freepik--speech-bubble--inject-94">
		<g id="freepik--group--inject-94_10_">
			<ellipse class="st3" cx="364.2" cy="441.8" rx="22.3" ry="1.4"/>
			<g id="freepik--group--inject-94_1_">
				<path class="st4" d="M407.6,409.5H212.9c-19,0-34.3-15.4-34.3-34.3V265.1c0-19,15.4-34.3,34.3-34.3h194.7
					c19,0,34.3,15.4,34.3,34.3v110.1C441.9,394.1,426.5,409.5,407.6,409.5z"/>
				<polygon id="freepik--path--inject-94_3_" class="st4" points="373.6,441.8 355.2,441.8 317.8,353.1 346,353.1 				"/>
			</g>
			<g id="freepik--group--inject-94_8_">
				<g id="freepik--group--inject-94_2_">
					<rect x="446.2" y="311.1" class="st0" width="1.2" height="9"/>
					<rect x="446.2" y="311.1" class="st5" width="1.2" height="9"/>
				</g>
				<g id="freepik--group--inject-94_3_">
					<rect x="446.2" y="272.5" class="st0" width="1.2" height="32.4"/>
					<rect x="446.2" y="272.5" class="st5" width="1.2" height="32.4"/>
				</g>
				<g id="freepik--group--inject-94_4_">
					<rect x="274.1" y="225.3" class="st0" width="16.7" height="1.2"/>
					<rect x="274.1" y="225.3" class="st5" width="16.7" height="1.2"/>
				</g>
				<g id="freepik--group--inject-94_5_">
					<polygon class="st0" points="424.3,353.1 373.6,441.8 336.2,353.1 					"/>
					<polygon class="st5" points="424.4,353.1 373.6,441.8 336.2,353.1 					"/>
				</g>
				<g id="freepik--group--inject-94_6_">
					<path id="freepik--rectangle--inject-94" class="st0" d="M407.6,409.5H228.4c-19,0-34.3-15.4-34.3-34.3V265.1
						c0-19,15.4-34.3,34.3-34.3h179.2c19,0,34.3,15.4,34.3,34.3v110.1C441.9,394.1,426.5,409.5,407.6,409.5z"/>
					<path id="freepik--rectangle--inject-94_1_" class="st5" d="M407.6,409.5H228.4c-19,0-34.3-15.4-34.3-34.3V265.1
						c0-19,15.4-34.3,34.3-34.3h179.2c19,0,34.3,15.4,34.3,34.3v110.1C441.9,394.1,426.5,409.5,407.6,409.5z"/>
				</g>
				<g id="freepik--group--inject-94_7_">
					<polygon class="st6" points="290.4,409.5 257.6,409.5 292.3,230.8 325.1,230.8 					"/>
					<polygon class="st6" points="320,409.5 301.3,409.5 336,230.8 354.7,230.8 					"/>
				</g>
			</g>
			<g id="freepik--group--inject-94_9_">
				<path id="freepik--path--inject-94_4_" class="st7" d="M397.5,288.5h-91.1c-5.3-0.2-9.4-4.6-9.2-9.9c0.2-5,4.2-9,9.2-9.2h91.1
					c5.3-0.2,9.7,3.9,9.9,9.2s-3.9,9.7-9.2,9.9C397.9,288.5,397.7,288.5,397.5,288.5z"/>
				<path id="freepik--path--inject-94_5_" class="st7" d="M275.1,288.5h-41.3c-5.3-0.2-9.4-4.6-9.2-9.9c0.2-5,4.2-9,9.2-9.2h41.3
					c5.3-0.2,9.7,3.9,9.9,9.2c0.2,5.3-3.9,9.7-9.2,9.9C275.6,288.5,275.3,288.5,275.1,288.5z"/>
				<path id="freepik--path--inject-94_6_" class="st7" d="M397.5,328.5H243.5c-5.3-0.2-9.4-4.6-9.2-9.9c0.2-5,4.2-9,9.2-9.2h153.9
					c5.3-0.2,9.7,3.9,9.9,9.2c0.2,5.3-3.9,9.7-9.2,9.9C397.9,328.6,397.7,328.6,397.5,328.5z"/>
				<path id="freepik--path--inject-94_7_" class="st7" d="M397.5,368.6h-71.3c-5.3-0.2-9.4-4.6-9.2-9.9c0.2-5,4.2-9,9.2-9.2h71.3
					c5.3-0.2,9.7,3.9,9.9,9.2c0.2,5.3-3.9,9.7-9.2,9.9C397.9,368.6,397.7,368.6,397.5,368.6z"/>
			</g>
			<path id="freepik--path--inject-94_8_" class="st8" d="M238.6,230.8c0,0-13.6,73.7-13.6,104.8c0,31.9,11.3,73.8,11.3,73.8h-36
				l-2.4-40.4c-2.2-37.8,1.5-75.8,11.1-112.4l6.8-25.9L238.6,230.8z"/>
		</g>
	</g>
	<g id="freepik--Character--inject-94">
		<g id="freepik--group--inject-94_11_">
			<path id="freepik--path--inject-94_9_" class="st3" d="M219.8,441.8c0,1.5-20.2,2.6-45.2,2.6s-45.2-1.2-45.2-2.6
				c0-1.4,20.2-2.6,45.2-2.6S219.8,440.4,219.8,441.8z"/>
			<path id="freepik--path--inject-94_10_" class="st9" d="M204.3,135.5c-3.8,0.6-7.4,0.9-11.1,1.2c-3.7,0.3-7.4,0.3-11.1,0.3
				c-7.5,0-15-0.8-22.4-2.5c-2.3-0.6-4.5-1.7-6.4-3.2c-1.6-1.2-3.1-2.6-4.5-4c-2.6-2.7-5-5.6-7.1-8.7c-4.3-5.9-8-12.2-11.3-18.7
				l4.6-2.8c2.1,2.8,4.2,5.6,6.4,8.4c2.2,2.7,4.4,5.5,6.7,8c2.2,2.5,4.6,5,7.1,7.2c1.2,1,2.4,2,3.7,2.8c0.9,0.7,2,1.2,3.1,1.5
				c3.3,0.6,6.6,0.9,9.9,1.1c3.4,0.1,6.8,0.2,10.2,0.2s6.9-0.2,10.3-0.5c3.4-0.2,7-0.6,10.2-1L204.3,135.5z"/>
			<path id="freepik--path--inject-94_11_" class="st4" d="M215.4,125.5c-9.4-5.7-22.1-1.6-22.1-1.6l6.4,22.2c0,0,10.2-2.9,14.1-7.2
				C218,134.5,221.1,128.9,215.4,125.5z"/>
			<path id="freepik--path--inject-94_12_" class="st9" d="M135.7,99.4l2.3-7.6l-10.7,1.3c0.7,3,2,5.9,3.9,8.4L135.7,99.4z"/>
			<polygon id="freepik--path--inject-94_13_" class="st9" points="137.2,82.8 128.3,84.4 127.3,93.1 138,91.8 			"/>
			<path id="freepik--path--inject-94_14_" class="st4" d="M259.2,55.4c9.5,0.2,6.8,8.1,6.8,8.1s10.3-6.5,13.6,1.1
				c3.3,7.6-4.1,10-8.5,11.2c2.7,1.6,2.9,6.6-0.9,8.3c-3.8,1.7-10.2-2.9-15.1-2.8l-4.8-5.6C256.9,71.5,249.7,55.2,259.2,55.4z"/>
			<path id="freepik--path--inject-94_15_" class="st0" d="M257.7,85.2c4.1,0.7,7.1,0.2,6.3-4.4c-1.1-5.2-4.7-9.4-9.6-11.3
				c-5.2-1.9-6.4,6.7-6.4,6.7L257.7,85.2z"/>
			<polygon id="freepik--path--inject-94_16_" class="st9" points="136.6,404.7 126,403.4 128.1,378.9 138.7,380.1 			"/>
			<polygon id="freepik--path--inject-94_17_" class="st9" points="206.6,433.4 196,433 193.7,408.2 204.4,408.7 			"/>
			<path id="freepik--path--inject-94_18_" class="st4" d="M195.6,429.7h12c0.4,0,0.8,0.3,0.9,0.7l1.4,9.5c0.1,0.9-0.6,1.8-1.5,1.9
				c-0.1,0-0.1,0-0.2,0c-4.2-0.1-6.2-0.3-11.4-0.3c-3.2,0-8,0.3-12.4,0.3s-4.7-4.4-2.8-4.8c8.3-1.8,9.7-4.3,12.5-6.6
				C194.3,430,195,429.7,195.6,429.7z"/>
			<path id="freepik--path--inject-94_19_" class="st4" d="M125.7,399.6l11.9-1.4c0.4-0.1,0.8,0.2,0.9,0.6l2.5,9.2
				c0.2,0.9-0.4,1.8-1.3,2c-0.1,0-0.1,0-0.2,0c-4.1,0.4-6.2,0.4-11.4,1c-3.2,0.4-9.9,1.5-14.2,2c-4.4,0.5-5.2-3.8-3.4-4.4
				c8.1-2.8,11-5.6,13.6-8.3C124.4,400,125,399.7,125.7,399.6z"/>
			<polygon id="freepik--path--inject-94_20_" class="st10" points="128.1,378.9 127,391.5 137.6,392.8 138.7,380.1 			"/>
			<polygon id="freepik--path--inject-94_21_" class="st10" points="204.4,408.7 193.7,408.2 194.9,421 205.6,421.4 			"/>
			<path id="freepik--path--inject-94_22_" class="st4" d="M205.1,122.7c0,0-5.4,0.3-12.6,63.2l41.6,11.8c4.1-17.1,7-27.6,25-60
				c-5.5-2.9-11.2-5.3-17-7.4c-6.2-2.2-12.5-4-18.9-5.3C214.8,123.4,205.1,122.7,205.1,122.7z"/>
			<path id="freepik--path--inject-94_23_" class="st9" d="M246.2,108.5c-2.9,5.7-7.3,16.5-4.2,21.8c0,0-3.4,5.7-14.7,2.5
				c-12.4-3.5-4.2-7.8-4.2-7.8c7.2,0.3,8.5-4.8,8.6-9.9L246.2,108.5z"/>
			<path id="freepik--path--inject-94_24_" class="st9" d="M211.5,123.3c3.4,0.4,7.7,0.9,11.6,1.7c6.4,1.3,12.7,3.1,18.9,5.3
				c3.5,1.2,7,2.6,9.8,3.9c-0.6,2.1-4.7,12.8-28.9,6.6C200.3,135,208.9,125.4,211.5,123.3z"/>
			<path id="freepik--path--inject-94_25_" class="st10" d="M240.3,111.2l-8.5,3.9c0,1.2-0.1,2.4-0.4,3.5c2.7,0.4,7.2-0.9,8.3-3.5
				C240.1,113.9,240.3,112.5,240.3,111.2z"/>
			<path id="freepik--path--inject-94_26_" class="st9" d="M251.6,95c-2.6,10.2-3.4,14.6-9.6,19c-9.3,6.6-21.4,1.2-22-9.6
				c-0.5-9.7,3.7-24.9,14.6-27.1c7.8-1.7,15.4,3.3,17.1,11.1C252.2,90.6,252.2,92.9,251.6,95z"/>
			<path id="freepik--path--inject-94_27_" class="st4" d="M248.3,104.9c-3.1-1.6-5.6-6.2-1.1-10.4c0,0-6.2-3.5-3.1-8.4
				s15.5-8.9,17.4-2.4c1.9,6.5-4.1,9.2-4.1,9.2s4.9,7.5-3.9,10c0,0-0.8,10.9-7.1,6L248.3,104.9z"/>
			<path id="freepik--path--inject-94_28_" class="st9" d="M251.5,104.7c-0.6,1.9-1.9,3.6-3.7,4.6c-2.4,1.2-4.2-0.7-4-3.3
				c0.2-2.3,1.6-5.7,4.2-6c1.9-0.1,3.6,1.3,3.7,3.2C251.7,103.8,251.6,104.2,251.5,104.7z"/>
			<path id="freepik--path--inject-94_29_" class="st0" d="M192.5,185.9c0,0-48.3,57-56.5,88.4c-8.5,32.7-12.3,113.4-12.3,113.4
				l16.6,2.1c0,0,11.1-73.9,25.1-104c14.9-32,57.6-91.3,57.6-91.3L192.5,185.9z"/>
			<polygon id="freepik--path--inject-94_30_" class="st0" points="142.5,390.1 121.4,387.3 121,381.5 144.3,386.2 			"/>
			<polygon id="freepik--path--inject-94_31_" class="st11" points="142.5,390.1 121.4,387.3 121,381.5 144.3,386.2 			"/>
			<path id="freepik--path--inject-94_32_" class="st5" d="M191.6,211.8c-4,14-6.9,28.2-8.9,42.6c4.4-7.1,9.1-14.4,13.6-21.2
				c1.6-3.6,3.3-7.2,4.9-10.7c0,0,0-0.1,0-0.1L191.6,211.8z"/>
			<path id="freepik--path--inject-94_33_" class="st0" d="M203.5,189c0,0-14,72-19,113.3c-4.1,33.4,8.8,114.4,8.8,114.4l13.9,0.9
				c0,0-2.9-72.4,3.5-104.7C226.9,231,242.1,220,234,197.6L203.5,189z"/>
			<polygon id="freepik--path--inject-94_34_" class="st0" points="208.8,417.6 190.8,416.5 190,411.4 209.4,413.5 			"/>
			<polygon id="freepik--path--inject-94_35_" class="st11" points="208.8,417.6 190.8,416.5 190,411.4 209.4,413.5 			"/>
			<path id="freepik--path--inject-94_36_" class="st0" d="M235.4,195.4l0.8,4.3c0.1,0.3-0.4,0.5-0.8,0.4l-43.6-12.3
				c-0.4-0.1-0.6-0.4-0.6-0.6l0.7-3.8c0-0.3,0.4-0.4,0.8-0.3l42.1,11.9C235,195,235.3,195.1,235.4,195.4z"/>
			<path id="freepik--path--inject-94_37_" class="st12" d="M235.4,195.4l0.8,4.3c0.1,0.3-0.4,0.5-0.8,0.4l-43.6-12.3
				c-0.4-0.1-0.6-0.4-0.6-0.6l0.7-3.8c0-0.3,0.4-0.4,0.8-0.3l42.1,11.9C235,195,235.3,195.1,235.4,195.4z"/>
			<path id="freepik--path--inject-94_38_" class="st0" d="M228.4,198.5l1.1,0.3c0.2,0.1,0.4,0,0.5-0.1l0.8-4.9
				c0-0.1-0.1-0.3-0.4-0.4l-1.1-0.3c-0.2-0.1-0.4,0-0.4,0.1l-0.9,4.9C228,198.3,228.2,198.4,228.4,198.5z"/>
			<path id="freepik--path--inject-94_39_" class="st0" d="M194.8,189l1.1,0.3c0.2,0.1,0.4,0,0.5-0.1l0.8-4.9c0-0.1-0.1-0.3-0.4-0.4
				l-1.1-0.3c-0.2-0.1-0.4,0-0.5,0.1l-0.8,4.9C194.4,188.7,194.5,188.9,194.8,189z"/>
			<path id="freepik--path--inject-94_40_" class="st0" d="M211.6,193.8l1.1,0.3c0.2,0,0.4,0,0.5-0.1l0.8-4.9c0-0.1-0.1-0.3-0.4-0.4
				l-1.1-0.3c-0.2-0.1-0.4,0-0.5,0.1l-0.8,4.9C211.2,193.5,211.4,193.7,211.6,193.8z"/>
			<path id="freepik--path--inject-94_41_" class="st4" d="M235.3,95.1c-0.2,0.8-0.7,1.4-1.2,1.3c-0.5-0.1-0.9-0.9-0.7-1.7
				c0.2-0.8,0.7-1.5,1.2-1.3C235.1,93.5,235.5,94.2,235.3,95.1z"/>
			<path id="freepik--path--inject-94_42_" class="st4" d="M225.8,93.3c-0.2,0.9-0.7,1.5-1.2,1.3c-0.5-0.1-0.9-0.9-0.7-1.7
				c0.2-0.8,0.7-1.5,1.2-1.4C225.6,91.7,225.9,92.5,225.8,93.3z"/>
			<path id="freepik--path--inject-94_43_" class="st4" d="M225.3,91.7l-1.9-1C223.4,90.7,224.1,92.5,225.3,91.7z"/>
			<path id="freepik--path--inject-94_44_" class="st13" d="M228,95.2c-1.1,1.8-2.5,3.4-4,4.8c0.8,0.8,1.8,1.2,2.9,1.1L228,95.2z"/>
			<path id="freepik--path--inject-94_45_" class="st4" d="M230.8,105.2c-0.5,0-1-0.1-1.5-0.1c-0.1,0-0.2-0.2-0.2-0.3
				c0-0.1,0.2-0.2,0.3-0.2c2.1,0.4,4.3-0.2,5.9-1.6c0.1-0.1,0.3-0.1,0.4,0c0.1,0.1,0.1,0.2,0,0.3
				C234.4,104.5,232.6,105.2,230.8,105.2z"/>
			<path id="freepik--path--inject-94_46_" class="st4" d="M238.9,92.5c-0.2,0-0.4-0.1-0.4-0.3c-0.5-1.2-1.6-2-2.9-2.2
				c-0.3,0-0.5-0.2-0.5-0.5c0-0.3,0.2-0.5,0.5-0.5c0,0,0.1,0,0.1,0c1.6,0.3,3,1.3,3.7,2.8c0.1,0.2,0,0.6-0.2,0.7
				C239.1,92.5,239,92.5,238.9,92.5z"/>
			<path id="freepik--path--inject-94_47_" class="st4" d="M222.4,88.1c-0.1,0-0.3-0.1-0.3-0.1c-0.2-0.2-0.2-0.5,0-0.7c0,0,0,0,0,0
				c1.1-1.2,2.7-1.8,4.3-1.6c0.3,0.1,0.4,0.3,0.4,0.6c0,0.3-0.3,0.4-0.6,0.4c0,0,0,0,0,0c-1.3-0.2-2.5,0.3-3.4,1.2
				C222.6,88,222.5,88.1,222.4,88.1z"/>
			<path id="freepik--path--inject-94_48_" class="st9" d="M260.3,149.3c0.8,3.8,1.4,7.3,1.9,11s0.8,7.4,1,11
				c0.4,7.5,0.1,15.1-1.1,22.5c-0.5,2.4-1.5,4.6-2.8,6.6c-1.1,1.7-2.4,3.3-3.7,4.7c-2.6,2.8-5.3,5.3-8.2,7.7
				c-5.7,4.6-11.7,8.8-18,12.4l-3-4.4c2.7-2.2,5.4-4.5,8-6.9s5.2-4.7,7.6-7.2c2.4-2.4,4.7-4.9,6.8-7.5c1-1.2,1.8-2.5,2.6-3.8
				c0.6-1,1-2.1,1.2-3.2c0.4-3.3,0.5-6.6,0.5-10c0-3.4-0.2-6.8-0.4-10.2c-0.3-3.4-0.7-6.9-1.1-10.3c-0.5-3.4-1-6.9-1.6-10.1
				L260.3,149.3z"/>
			<path id="freepik--path--inject-94_49_" class="st4" d="M259,137.7c3.8,2.5,4.7,18.2,4.7,18.2l-19.4,7c0,0-2.5-13.6,0.8-18.5
				C248.5,139.2,254.7,134.9,259,137.7z"/>
			<path class="st0" d="M192,431.6c-0.7,0.1-1.4-0.1-2-0.6c-0.4-0.3-0.5-0.8-0.4-1.3c0-0.3,0.2-0.6,0.5-0.7c1.2-0.6,4.5,1.5,4.8,1.8
				c0.1,0.1,0.1,0.2,0.1,0.3c0,0.1-0.1,0.2-0.2,0.2C193.9,431.5,192.9,431.6,192,431.6z M190.6,429.4c-0.1,0-0.2,0-0.3,0
				c-0.1,0.1-0.2,0.2-0.2,0.3c-0.1,0.3,0,0.7,0.2,0.9c0.5,0.5,1.9,0.6,3.8,0.2C193,430.1,191.8,429.6,190.6,429.4z"/>
			<path class="st0" d="M194.7,431.2c0,0-0.1,0-0.1,0c-1-0.6-3-2.9-2.7-4.1c0.1-0.4,0.4-0.7,0.9-0.7c0.4-0.1,0.8,0.1,1.1,0.3
				c1.2,1,1.2,4.1,1.2,4.2c0,0.1,0,0.2-0.1,0.2C194.9,431.3,194.8,431.3,194.7,431.2z M192.9,426.9h-0.1c-0.3,0-0.4,0.2-0.4,0.3
				c-0.1,0.7,1.1,2.5,2.1,3.3c0-1.2-0.3-2.4-1-3.4C193.3,427,193.1,426.9,192.9,426.9z"/>
			<path class="st0" d="M121,401.9c-0.6,0-1.2-0.1-1.7-0.4c-0.4-0.3-0.6-0.7-0.6-1.2c0-0.3,0.1-0.6,0.3-0.7c1.2-0.9,5.7,0.8,6.2,1
				c0.1,0,0.2,0.1,0.2,0.2c0,0.1-0.1,0.2-0.2,0.2C123.8,401.6,122.4,401.9,121,401.9z M120.1,399.9c-0.3,0-0.5,0-0.8,0.2
				c-0.1,0.1-0.1,0.2-0.1,0.3c0,0.3,0.1,0.6,0.4,0.8c0.7,0.5,2.5,0.4,4.7-0.3C123,400.4,121.5,400,120.1,399.9z"/>
			<path class="st0" d="M125.1,401.1L125.1,401.1c-1.4-0.4-4.2-2.4-4.1-3.6c0-0.3,0.2-0.7,0.9-0.8c0.5-0.1,1,0,1.4,0.3
				c1.5,0.9,2,3.8,2.1,3.9c0,0.1,0,0.2-0.1,0.2C125.2,401.1,125.2,401.1,125.1,401.1z M122.3,397.1c-0.1,0-0.2,0-0.3,0
				c-0.5,0.1-0.5,0.3-0.5,0.3c0,0.7,1.9,2.3,3.3,3c-0.2-1.2-0.9-2.3-1.7-3.1C122.8,397.2,122.5,397.2,122.3,397.1L122.3,397.1z"/>
			<path class="st14" d="M170.5,89.6c-44.2-10.3-88.4,17.2-98.7,61.4c-3.5,15.2-2.7,31.1,2.5,45.9l-24,25.5l36.2-2.8
				c27.6,36.1,79.1,43,115.2,15.4s43-79.1,15.4-115.2C205.7,104.6,189.1,93.9,170.5,89.6L170.5,89.6z"/>
			<path class="st8" d="M170.5,89.6c-44.2-10.3-88.4,17.2-98.7,61.4c-3.5,15.2-2.7,31.1,2.5,45.9l-24,25.5l36.2-2.8
				c27.6,36.1,79.1,43,115.2,15.4s43-79.1,15.4-115.2C205.7,104.6,189.1,93.9,170.5,89.6L170.5,89.6z"/>
			<path class="st7" d="M152.1,247.9L152.1,247.9c-24.4,0-47.4-11.4-62.2-30.7l-1.3-1.8l-27.6,2.1c-0.1,0-0.1,0-0.2-0.1
				c0-0.1,0-0.1,0-0.2L79,197.9l-0.8-2.3c-14.3-40.7,7.1-85.4,47.8-99.7c8.3-2.9,17.1-4.4,25.9-4.4c43.2,0,78.3,35,78.3,78.2
				c0,5.9-0.7,11.9-2,17.7C220.1,222.9,188.5,248,152.1,247.9z M88.6,215.1c0.1,0,0.1,0,0.1,0.1l1.4,1.8
				c14.8,19.3,37.7,30.6,61.9,30.6l0,0c43-0.1,77.8-35,77.8-78c0-36.2-25-67.6-60.3-75.8c-5.8-1.3-11.7-2-17.6-2
				c-43,0-77.8,34.9-77.8,77.9c0,8.8,1.5,17.5,4.4,25.7l0.8,2.4c0,0.1,0,0.1,0,0.2l-18.1,19.2L88.6,215.1L88.6,215.1z"/>
			<path class="st7" d="M180.5,155.7c0.4-0.9,0.1-2-0.7-2.6c-4.3-3.1-9.1-5.3-14.2-6.4c-18.3-4.2-36.6,7.2-40.9,25.5
				c-2.8,12.2,3.9,20.5,12,22.4c6.8,1.7,14,0.1,19.4-4.4c0.1,5.4,4,10,9.3,11c12.7,2.9,28.1-5.6,33.2-27.5
				c5.5-23.6-7.3-43.9-31-49.3c-28.5-6.6-55.2,11-62.2,40.9c-5.8,24.9,7.7,47.1,31.9,52.7c9.6,2.2,17.5,2.3,25.6,0.1
				c1.1-0.3,1.7-1.3,1.6-2.4l-0.8-6.2c-0.1-0.6-0.4-1.2-1-1.5c-0.5-0.4-1.2-0.5-1.8-0.3c-6.5,1.6-13.3,1.6-19.7,0
				c-18.9-4.4-28.5-20.7-23.9-40.6c5.5-24,25.2-37.8,46.8-32.8c18.3,4.2,26.9,18.5,22.6,37.4c-1.9,8.2-5.8,14.7-10.8,17.7
				c-1.8,1.3-4.1,1.8-6.2,1.4c-0.7-0.1-1.2-0.5-1.5-1.1c-0.5-1.1-0.9-4,2.5-11.5L180.5,155.7z M161.4,157.5c1.4,0.3,2.7,0.8,4,1.3
				l-5.4,12.3c-3,7.1-11.4,14.3-17.6,12.9c-5.7-1.3-5.4-6.4-4.7-9.3C140.4,163,151.3,155.2,161.4,157.5L161.4,157.5z"/>
			<path id="freepik--path--inject-94_50_" class="st9" d="M228.4,220l-9.3-5.3l2,10.6c0,0,6.5,2.1,9.7-0.9L228.4,220z"/>
			<polygon id="freepik--path--inject-94_51_" class="st9" points="210.2,216 212.4,224.8 221.1,225.3 219.1,214.7 			"/>
			<path id="freepik--path--inject-94_52_" class="st4" d="M234.9,93.4l-1.9-1C232.9,92.5,233.7,94.2,234.9,93.4z"/>
			<path id="freepik--path--inject-94_53_" class="st4" d="M248.1,88.6c-5.3-0.3-9.1-2.7-9.7-5.7c0,0-12.1,5-17-2.5
				c0,0-5.5,0.9-6.9-2.9c-1.4-3.8,4.4-4.9,7.1-3.2c0,0-8.4-7.4,0.2-9.5c8.6-2.1,10.5,4.9,10.5,4.9s3.4-10.2,11.1-5.7
				s2.9,8.9,2.9,8.9s18.3,1.4,11.5,8.6C251,88.8,248.1,88.6,248.1,88.6z"/>
			<path id="freepik--path--inject-94_54_" class="st4" d="M241.5,124c1,0.1,0.6,3.7,0.1,3.9c-1.1,0.6-14-2.1-13.6-4.1
				c0.4-1,1.1-1.8,1.8-2.6C230.4,120.9,232.4,123.2,241.5,124z"/>
		</g>
	</g>
	<g id="freepik--quotation-marks--inject-94">
		<g id="freepik--group--inject-94_12_">
			<path class="st0" d="M308.9,152.2c-11.4,0-20.7,9.2-20.7,20.6c0,10.3,7.6,19.1,17.8,20.5c0.1,5.2-1.7,10.3-5.1,14.2
				c0,0,28.7-7.1,28.7-34.6C329.6,161.5,320.3,152.2,308.9,152.2L308.9,152.2z"/>
			<path class="st0" d="M355.4,152.2c-11.4,0-20.7,9.2-20.7,20.6c0,10.3,7.6,19.1,17.8,20.5c0.1,5.2-1.7,10.3-5.1,14.2
				c0,0,28.7-7.1,28.7-34.6C376.1,161.5,366.8,152.2,355.4,152.2C355.4,152.2,355.4,152.2,355.4,152.2z"/>
		</g>
	</g>
</g>
</svg>
