<?xml version="1.0" encoding="utf-8"?>
<!-- Generator: Adobe Illustrator 22.1.0, SVG Export Plug-In . SVG Version: 6.00 Build 0)  -->
<svg version="1.1" id="Layer_1" xmlns="http://www.w3.org/2000/svg" xmlns:xlink="http://www.w3.org/1999/xlink" x="0px" y="0px"
	 viewBox="0 0 1880 650" style="enable-background:new 0 0 1880 650;" xml:space="preserve">
<style type="text/css">
	.st0{fill:#2E353A;stroke:#2E353A;stroke-width:1.2411;stroke-linecap:round;stroke-linejoin:round;}
	.st1{fill:none;stroke:#2E353A;stroke-width:3.7233;stroke-linecap:round;stroke-linejoin:round;}
	.st2{fill:none;stroke:#2E353A;stroke-width:2.4822;stroke-linecap:round;stroke-linejoin:round;}
	.st3{fill:#2C50BE;stroke:#2E353A;stroke-width:2.4822;stroke-linecap:round;stroke-linejoin:round;}
	.st4{fill:#FFFFFF;stroke:#2E353A;stroke-width:2.4822;stroke-linecap:round;stroke-linejoin:round;}
	.st5{fill:none;stroke:#2E353A;stroke-width:1.2411;stroke-linecap:round;stroke-linejoin:round;}
	.st6{fill:#2C50BE;stroke:#2E353A;stroke-width:1.2411;stroke-linecap:round;stroke-linejoin:round;}
	.st7{fill:#FFFFFF;stroke:#2E353A;stroke-width:1.2411;stroke-linecap:round;stroke-linejoin:round;}
	.st8{fill:#2E353A;stroke:#FFFFFF;stroke-width:1.2411;stroke-linecap:round;stroke-linejoin:round;}
</style>
<g>
	<g id="freepik--Bulb--inject-146">
		<path class="st0" d="M1516.7,588.8c-11.3-17.2-59.6-89.6-73.7-91.5c-13.8-1.9-62.7,71.3-75.9,91.5H1516.7z"/>
		<line class="st1" x1="1578.6" y1="165.9" x2="1578.6" y2="332.8"/>
		<line class="st1" x1="1598.5" y1="170.3" x2="1598.5" y2="332.8"/>
		<line class="st1" x1="1620.2" y1="259.2" x2="1620.2" y2="416.6"/>
		<line class="st1" x1="1643.2" y1="170.3" x2="1643.2" y2="416.6"/>
		<line class="st1" x1="1666.3" y1="170.3" x2="1666.3" y2="337.3"/>
		<line class="st1" x1="1561.4" y1="188.2" x2="1666.9" y2="188.2"/>
		<line class="st1" x1="1561.4" y1="225.3" x2="1675.8" y2="225.3"/>
		<line class="st1" x1="1559.5" y1="259.2" x2="1686.7" y2="259.2"/>
		<line class="st1" x1="1557.5" y1="297" x2="1686.7" y2="297"/>
		<line class="st1" x1="1581.8" y1="337.9" x2="1679.7" y2="337.9"/>
		<line class="st1" x1="1607.4" y1="377.5" x2="1671.4" y2="377.5"/>
		<line class="st2" x1="1439" y1="181.7" x2="1461.6" y2="199.4"/>
		<line class="st2" x1="1484.2" y1="163.1" x2="1492" y2="174.8"/>
		<line class="st2" x1="1524.4" y1="134.6" x2="1531.3" y2="156.2"/>
		<path class="st3" d="M1653.2,412.1H1616v-88.5h-50.5V166.8c-68.5,0.7-123.6,56.8-122.9,125.3c0.2,19.8,5.1,39.3,14.4,56.8
			c4,9.4,13.6,32.5,23.1,62.3c8.8,27.5,13.4,55.2,13.4,59.4c0,0.4,0,0.8,0,1.2c-0.2,5.1,3.8,9.4,9,9.6c0.1,0,0.2,0,0.3,0h128.1
			c5.1,0,9.3-4.2,9.3-9.3c0-0.1,0-0.2,0-0.3c0-0.4,0-0.9,0-1.2C1640.1,466.5,1644.6,439.4,1653.2,412.1z"/>
		<path class="st2" d="M1523.4,186.8c3.6-1.6,7.3-3,11-4.2"/>
		<path class="st2" d="M1482.1,218.3c0,0,10.1-16.1,32.3-27"/>
		<path class="st2" d="M1484.8,396.9c4.6,15,10.7,35.9,12.8,47.5c3.6,19.6,1.2,29.8,8.9,31.5"/>
		<path class="st2" d="M1479.1,378.9c0,0,1.2,4,3.2,10.2"/>
		<path class="st2" d="M1558.9,480.3V361.6c0,0,5-31-11.2-31s-14.9,16.1,3.7,33.5c18.6,17.4,47.2,1.2,50.9-12.4
			c3.7-13.7-6.2-19.9-12.4-8.7s0,137.8,0,137.8"/>
		<rect x="1500.2" y="480.8" class="st4" width="133.9" height="31.1"/>
		<rect x="1500.2" y="519.2" class="st4" width="133.9" height="31.1"/>
		<rect x="1500.2" y="511.8" class="st0" width="133.9" height="7.4"/>
		<rect x="1500.2" y="557.7" class="st4" width="133.9" height="31.1"/>
		<line class="st5" x1="1620.1" y1="507.7" x2="1630.1" y2="507.7"/>
		<line class="st5" x1="1505.5" y1="507.7" x2="1615.3" y2="507.7"/>
		<line class="st5" x1="1594.3" y1="546.8" x2="1626.4" y2="546.8"/>
		<line class="st5" x1="1525.3" y1="546.8" x2="1590.6" y2="546.8"/>
		<line class="st5" x1="1514.7" y1="546.8" x2="1520.2" y2="546.8"/>
		<rect x="1500.2" y="550.3" class="st0" width="133.9" height="7.4"/>
		<rect x="1517.6" y="564.5" class="st6" width="45.8" height="23.9"/>
		<rect x="1577.3" y="564.5" class="st6" width="45.8" height="23.9"/>
	</g>
	<g id="freepik--Ground--inject-146">
		<path class="st0" d="M1664.4,588.8c-8.8-7.7-46.3-40.1-57.2-41c-10.7-0.9-48.7,31.9-59,41H1664.4z"/>
		<line class="st5" x1="1809.2" y1="588.8" x2="1820" y2="588.8"/>
		<line class="st5" x1="1316.1" y1="588.8" x2="1798.5" y2="588.8"/>
		<line class="st5" x1="1299.3" y1="588.8" x2="1307.7" y2="588.8"/>
	</g>
	<g id="freepik--Trucks--inject-146">
		<polygon class="st0" points="1787.5,518 1755.3,518 1755.3,563.1 1768.7,563.1 1787.5,563.1 1800.9,563.1 1800.9,540.6 		"/>
		<rect x="1786.1" y="563.1" class="st7" width="14.8" height="10.3"/>
		<path class="st6" d="M1731.4,562.6c0,0,16.1-8.7,10.5-52.1l-20.5-11.2l-35.4-5.6l-31.6,1.2v18c0,0,18,15.5,19.9,20.5
			c1.2,3.4,1.8,7,1.9,10.5v17.4L1731.4,562.6z"/>
		<line class="st5" x1="1741.9" y1="510.5" x2="1731.4" y2="562.6"/>
		<line class="st5" x1="1721.5" y1="499.3" x2="1709.7" y2="562.6"/>
		<line class="st5" x1="1686.1" y1="493.8" x2="1677.4" y2="540.9"/>
		<path class="st5" d="M1655.7,510.5c0,0,20.5,8.7,28.5,14.3c8.1,5.6,6.8,17.4,6.8,17.4"/>
		<rect x="1659.4" y="563.5" class="st7" width="96.2" height="8.1"/>
		<polygon class="st7" points="1774.8,542.8 1794.9,542.8 1784.1,524.2 1774.8,524.2 		"/>
		<rect x="1763" y="524.2" class="st7" width="8.7" height="18.6"/>
		<rect x="1659.9" y="563.1" class="st7" width="58.6" height="14"/>
		<circle class="st0" cx="1771.8" cy="576.4" r="12.3"/>
		<circle class="st7" cx="1771.8" cy="576.5" r="7.2"/>
		<circle class="st0" cx="1676.9" cy="576.5" r="12.3"/>
		<circle class="st7" cx="1676.8" cy="576.5" r="7.2"/>
		<circle class="st0" cx="1706.6" cy="576.4" r="12.3"/>
		<circle class="st7" cx="1706.6" cy="576.5" r="7.2"/>
		<path class="st0" d="M1671.5,541.5h31c2.2,0,4,1.8,4,4v13c0,2.2-1.8,4-4,4h-31c-2.2,0-4-1.8-4-4v-13
			C1667.5,543.3,1669.3,541.5,1671.5,541.5z"/>
		<polyline class="st5" points="1652,562.6 1652,501.3 1664.4,501.3 1664.4,562.6 		"/>
		<line class="st5" x1="1652.1" y1="509.4" x2="1664.2" y2="509.4"/>
		<line class="st5" x1="1652.1" y1="519" x2="1664.2" y2="519"/>
		<line class="st5" x1="1652.1" y1="528.6" x2="1664.2" y2="528.6"/>
		<line class="st5" x1="1652.1" y1="538.1" x2="1664.2" y2="538.1"/>
		<line class="st5" x1="1652.1" y1="547.7" x2="1664.2" y2="547.7"/>
		<line class="st5" x1="1652.1" y1="557.3" x2="1664.2" y2="557.3"/>
		<polygon class="st5" points="1403.7,590 1381.4,590 1381.4,200.3 1403.7,226.3 		"/>
		<polygon class="st5" points="1381.6,508.1 1403.5,508.1 1381.6,486.9 1403.5,486.9 		"/>
		<polygon class="st5" points="1381.6,486.4 1403.5,486.4 1381.6,465.2 1403.5,465.2 		"/>
		<polygon class="st5" points="1381.6,464.6 1403.5,464.6 1381.6,443.5 1403.5,443.5 		"/>
		<polygon class="st5" points="1381.6,442.9 1403.5,442.9 1381.6,421.7 1403.5,421.7 		"/>
		<polygon class="st5" points="1381.6,421.2 1403.5,421.2 1381.6,400 1403.5,400 		"/>
		<polygon class="st5" points="1381.6,399.5 1403.5,399.5 1381.6,378.3 1403.5,378.3 		"/>
		<polygon class="st5" points="1381.6,377.8 1403.5,377.8 1381.6,356.6 1403.5,356.6 		"/>
		<polygon class="st5" points="1381.6,356.1 1403.5,356.1 1381.6,334.9 1403.5,334.9 		"/>
		<polygon class="st5" points="1381.6,334.3 1403.5,334.3 1381.6,313.1 1403.5,313.1 		"/>
		<polygon class="st5" points="1381.6,312.6 1403.5,312.6 1381.6,291.4 1403.5,291.4 		"/>
		<polygon class="st5" points="1381.6,290.9 1403.5,290.9 1381.6,269.7 1403.5,269.7 		"/>
		<polygon class="st5" points="1381.6,269.2 1403.5,269.2 1381.6,248 1403.5,248 		"/>
		<polygon class="st5" points="1381.6,247.5 1403.5,247.5 1381.6,226.3 1403.5,226.3 		"/>
		<polygon class="st5" points="1507.5,248 1496.6,241.2 1419.4,241.2 1410,248 		"/>
		<rect x="1320.6" y="247.5" class="st0" width="188.6" height="5"/>
		<polyline class="st5" points="1496.6,241.2 1381.4,200.3 1419.4,241.2 		"/>
		<line class="st5" x1="1381.4" y1="200.3" x2="1320.6" y2="247.5"/>
		<rect x="1373.3" y="258" class="st0" width="46.5" height="29.8"/>
		<rect x="1383" y="264.2" class="st7" width="27.1" height="8.7"/>
		<line class="st5" x1="1509.2" y1="252.4" x2="1509.2" y2="305.9"/>
		<rect x="1502.5" y="324.2" class="st0" width="13.8" height="15.6"/>
		<polyline class="st5" points="1502.5,324.2 1509.4,304.9 1516.3,324.2 		"/>
		<path class="st6" d="M1472,512.8l29.8,47.1l7.4-5.4l-21.9-43.8c-2-4-6.1-6.6-10.6-6.6l0,0c-3.1,0.1-5.6,2.7-5.6,5.8
			C1471.2,510.9,1471.5,511.9,1472,512.8z"/>
		<path class="st8" d="M1506.7,548.3l-30.6,21.8c0,0,2.7,11.6,20.4,10.9c17.7-0.7,17-19.1,17-19.1L1506.7,548.3z"/>
		<path class="st6" d="M1421.5,534l55.5-25c3.8-1.7,8.2-0.5,10.7,2.8l0,0c2.9,3.9,2.1,9.4-1.8,12.3c-0.1,0-0.1,0.1-0.2,0.1
			l-60.7,42.5L1421.5,534z"/>
		<rect x="1356.2" y="564.6" class="st7" width="57.2" height="8.8"/>
		<rect x="1335.7" y="539.4" class="st0" width="49.7" height="20.4"/>
		<path class="st6" d="M1379,516.3h42.2c2.1,0,3.7,1.7,3.7,3.7v39.8l0,0h-49.7l0,0V520C1375.2,517.9,1376.9,516.3,1379,516.3
			C1379,516.3,1379,516.3,1379,516.3z"/>
		<path class="st0" d="M1335.2,588.8h81.4c5.4,0,9.7-4.3,9.7-9.7l0,0c0-5.4-4.3-9.7-9.7-9.7h-81.4c-5.4,0-9.7,4.4-9.7,9.7l0,0
			C1325.5,584.5,1329.9,588.8,1335.2,588.8z"/>
		<path class="st7" d="M1347.5,588.8h81.4c5.4,0,9.7-4.3,9.7-9.7l0,0c0-5.4-4.3-9.7-9.7-9.7l0,0h-81.4c-5.4,0-9.7,4.3-9.7,9.7l0,0
			l0,0C1337.8,584.5,1342.1,588.8,1347.5,588.8z"/>
		<rect x="1335.7" y="559.9" class="st7" width="89.2" height="6.8"/>
		<path class="st0" d="M1354.1,579.1c0,3.4-2.7,6.1-6.1,6.1s-6.1-2.7-6.1-6.1c0-3.4,2.7-6.1,6.1-6.1S1354.1,575.7,1354.1,579.1
			L1354.1,579.1z"/>
		<circle class="st0" cx="1364.4" cy="579.1" r="6.1"/>
		<circle class="st0" cx="1380.7" cy="579.1" r="6.1"/>
		<path class="st0" d="M1403.2,579.1c0,3.4-2.7,6.1-6.1,6.1s-6.1-2.7-6.1-6.1c0-3.4,2.7-6.1,6.1-6.1S1403.2,575.7,1403.2,579.1
			L1403.2,579.1z"/>
		<path class="st0" d="M1419.5,579.1c0,3.4-2.7,6.1-6.1,6.1s-6.1-2.7-6.1-6.1c0-3.4,2.7-6.1,6.1-6.1S1419.5,575.7,1419.5,579.1
			L1419.5,579.1z"/>
		<path class="st0" d="M1435.8,579.1c0,3.4-2.7,6.1-6.1,6.1s-6.1-2.7-6.1-6.1s2.7-6.1,6.1-6.1c0,0,0,0,0,0
			C1433.1,573,1435.8,575.7,1435.8,579.1C1435.8,579.1,1435.8,579.1,1435.8,579.1z"/>
		<path class="st0" d="M1483.5,516.3c0-1.9-1.5-3.4-3.4-3.4s-3.4,1.5-3.4,3.4c0,1.9,1.5,3.4,3.4,3.4c0,0,0,0,0,0
			C1482,519.7,1483.5,518.2,1483.5,516.3C1483.5,516.3,1483.5,516.3,1483.5,516.3z"/>
		<rect x="1381.4" y="521.7" class="st7" width="36.1" height="21.8"/>
		<rect x="1397.7" y="521.7" class="st7" width="19.7" height="21.8"/>
	</g>
</g>
</svg>
